<?xml version="1.0" encoding="UTF-8"?>
<svg width="149px" height="200px" viewBox="0 0 149 200" version="1.1" xmlns="http://www.w3.org/2000/svg" xmlns:xlink="http://www.w3.org/1999/xlink">
    <title>Artboard Copy 3</title>
    <g id="Artboard-Copy-3" stroke="none" stroke-width="1" fill="none" fill-rule="evenodd">
        <g id="Marker-Copy-5" transform="translate(1.000000, 1.000000)" fill="#656565" stroke="#E6E6E6" stroke-width="1.166">
            <path d="M74,0.583 C94.2729894,0.583 112.626512,8.86981133 125.911934,22.2670834 C139.199118,35.666132 147.417,54.1768587 147.417,74.6230041 C147.417,101.944104 122.782639,143.433633 73.672489,199.104256 C24.9998913,143.424502 0.583,101.94096 0.583,74.6230041 C0.583,54.1768587 8.80088178,35.666132 22.0880659,22.2670834 C35.3734884,8.86981133 53.7270106,0.583 74,0.583 Z" id="Oval"></path>
        </g>
        <path d="M86.5180303,1 C73.7978108,4.84609946 50.7865272,4.13870904 42.8779031,21.7378076 C40.1799913,27.7414835 32.4772371,38.4983377 37.8747869,41.1766536 C54.6609853,49.5061259 74.5124732,42.867049 92.5389534,46.3800962 C158.542145,59.2429689 52.0624206,70.0213724 43.1554868,92.5122227 C31.1354374,122.863985 104.888892,95.3382131 85.8637258,134.686694 C80.4625825,145.857519 68.935363,153.365012 66.3733827,165.801002 C64.697164,173.937458 71.9074329,181.267001 74.674458,189" id="Path-Copy-3" stroke="#FFFFFF" stroke-dasharray="2"></path>
    </g>
</svg>