<?xml version="1.0" encoding="UTF-8"?>
<!DOCTYPE svg PUBLIC "-//W3C//DTD SVG 1.1//EN"
  "http://www.w3.org/Graphics/SVG/1.1/DTD/svg11.dtd">
<svg width="219px" height="219px" viewBox="0 0 219 219" version="1.1" xmlns="http://www.w3.org/2000/svg" xmlns:xlink="http://www.w3.org/1999/xlink">
    <!-- Generator: Sketch 64 (93537) - https://sketch.com -->
    <title>Group</title>
    <desc>Created with Sketch.</desc>
    <g id="Page-1" stroke="none" stroke-width="1" fill="none" fill-rule="evenodd">
        <g id="Artboard-Copy-10" transform="translate(-21.000000, -20.000000)">
            <g id="Group" transform="translate(22.000000, 21.000000)">
                <circle id="Oval" stroke="#323232" stroke-width="2" cx="108" cy="108" r="102"></circle>
                <circle id="Oval-Copy" stroke="#323232" cx="108.5" cy="108.5" r="108.5"></circle>
                <polygon id="Triangle-Copy" stroke="#979797" fill="#282828" points="108.5 36 132 109 85 109"></polygon>
                <polygon id="Triangle-Copy-2" stroke="#979797" fill="#282828" points="138.5 36 169 109 108 109"></polygon>
                <polygon id="Triangle" stroke="#979797" fill="#282828" points="77.5 36 107 109 48 109"></polygon>
                <path d="M108.725566,108.618983 C104.741429,110.437134 100.446774,111.773583 96.7731568,114.073437 C64.1193021,134.516255 126.346465,140.655175 136.089839,145.221294 C139.919787,147.016154 141.389845,150.421794 142.207772,154.188487 C145.163274,167.799078 121.319179,168.14047 112.352518,168.363008 C96.1004208,168.766358 79.7944066,169.238505 63.5787017,168.166875 C52.615353,167.442352 41.9448931,164.590145 31.0928874,162.992891 C30.5329341,162.910474 23.5114023,162.540197 23.2356653,162.992891 C22.7070773,163.860705 26.2451812,167.218597 26.568037,168.166875 C27.3889311,170.577969 30.5897684,172.76379 32.1358511,174.856981 C38.764669,183.831522 57.5852228,183.840986 65.3953992,185.618775 C91.6194526,191.588018 126.667283,189.536712 147.200469,171.336382 C175.757946,146.023432 116.999501,140.002216 109.301068,138.007528 C89.6254542,132.909515 86.1570076,119.669775 103.256147,110.690146 L108.725566,108.618983 Z" id="Path-5" stroke="#979797" fill="#282828"></path>
            </g>
        </g>
    </g>
</svg>
