<?xml version="1.0" encoding="UTF-8"?>
<svg width="200px" height="97px" viewBox="0 0 177 97" version="1.1" xmlns="http://www.w3.org/2000/svg" xmlns:xlink="http://www.w3.org/1999/xlink">
    <title>Artboard Copy 2</title>
    <g id="Artboard-Copy-2" stroke="none" stroke-width="3" fill="none" fill-rule="evenodd">
        <text id="Shell’s-Steps-Copy-2" font-family="Merienda-Regular_0_wt, Merienda" font-size="30" font-weight="normal" line-spacing="32" letter-spacing="0.888889" fill="#383838">
            <tspan x="100" y="46">Shell’s</tspan>
            <tspan x="100" y="78">Steps</tspan>
        </text>
        <g id="Marker-Copy-5" transform="translate(1.000000, 1.000000)" fill="#656565" stroke="#E6E6E6" stroke-width="1.166">
            <path d="M35.5,0.583 C45.1414709,0.583 53.8699442,4.52650337 60.1882075,10.9015495 C66.5083502,17.2784919 70.417,26.0882768 70.417,35.819042 C70.417,48.851565 58.6738494,68.6066622 35.3457478,95.1122108 C12.2237295,68.605258 0.583,48.8509652 0.583,35.819042 C0.583,26.0882768 4.49164984,17.2784919 10.8117925,10.9015495 C17.1300558,4.52650337 25.8585291,0.583 35.5,0.583 Z" id="Oval"></path>
        </g>
        <path d="M41.963681,1 C35.9297308,2.84121783 25.0141219,2.50257348 21.2625951,10.9276738 C19.9828164,13.801774 16.3289458,18.9513319 18.889322,20.2335044 C26.8520058,24.2210177 36.2687373,21.0427362 44.81976,22.7245141 C76.128966,28.8822723 25.6193533,34.0421464 21.3942694,44.8090428 C15.6924511,59.3391416 50.6780641,46.1619105 41.6533058,64.9989495 C39.091225,70.3466844 33.623185,73.9406974 32.4078867,79.8940967 C31.6127573,83.7892085 35.033013,87.2980322 36.3455762,91" id="Path-Copy-3" stroke="#FFFFFF" stroke-dasharray="2"></path>
    </g>
</svg>